<svg width="64" height="64" viewBox="0 0 64 64" fill="none" xmlns="http://www.w3.org/2000/svg">
<g clip-path="url(#clip0_1_6)">
<path d="M45.3333 56H18.6667C17.2522 56 15.8956 55.4381 14.8954 54.4379C13.8952 53.4377 13.3333 52.0812 13.3333 50.6667V13.3333C13.3333 11.9188 13.8952 10.5623 14.8954 9.5621C15.8956 8.5619 17.2522 8 18.6667 8H37.3333L50.6667 21.3333V50.6667C50.6667 52.0812 50.1048 53.4377 49.1046 54.4379C48.1044 55.4381 46.7478 56 45.3333 56Z" fill="#0A81DA"/>
<path d="M37.3333 8V18.6667C37.3333 19.3739 37.6143 20.0522 38.1144 20.5523C38.6145 21.0524 39.2928 21.3333 40 21.3333H50.6667" fill="white"/>
<path d="M39.7754 43.7559L37.291 50.8867C37.1699 51.2305 36.9609 51.502 36.6641 51.7012C36.3672 51.9004 36.0371 52 35.6738 52H31.1387C31.2324 51.6484 31.4141 51.373 31.6836 51.1738C31.9531 50.9707 32.2715 50.8691 32.6387 50.8691H35.1699L36.4062 47.3945L34.6426 49.2637C34.2793 49.6465 33.7949 49.8379 33.1895 49.8379C32.8379 49.8379 32.541 49.7598 32.2988 49.6035C32.0215 49.4238 31.8828 49.166 31.8828 48.8301C31.8828 48.6699 31.9102 48.5098 31.9648 48.3496L33.2012 44.8867H32.1465C32.1621 44.9961 32.1699 45.0879 32.1699 45.1621C32.1699 45.5488 32.0176 45.8789 31.7129 46.1523C31.4121 46.4258 31.0469 46.5625 30.6172 46.5625C30.1875 46.5625 29.8203 46.4258 29.5156 46.1523C29.2109 45.8789 29.0586 45.5488 29.0586 45.1621C29.0586 44.7559 29.2188 44.416 29.5391 44.1426C29.8438 43.8848 30.1992 43.7559 30.6055 43.7559H34.4141C34.6836 43.7559 34.9023 43.8359 35.0703 43.9961C35.2383 44.1523 35.3223 44.3652 35.3223 44.6348C35.3223 44.7871 35.2949 44.9414 35.2402 45.0977L33.9922 48.6016L37.4375 44.1895C37.5273 44.0723 37.6719 43.9707 37.8711 43.8848C38.0703 43.7988 38.2461 43.7559 38.3984 43.7559H39.7754Z" fill="white"/>
<path d="M48.2188 45.0039C48.2148 45.5195 48.0352 45.9961 47.6797 46.4336L43.9121 51.0625C43.4043 51.6875 42.832 52 42.1953 52H40.6953L41.2871 45.2324H38.5742L39.4473 43.7559H42.2832C42.5996 43.7559 42.8652 43.8535 43.0801 44.0488C43.2949 44.2441 43.4023 44.4922 43.4023 44.793C43.4023 44.832 43.4004 44.8711 43.3965 44.9102L42.7871 50.8691L46.373 46.3984C46.0059 46.3281 45.7012 46.166 45.459 45.9121C45.2207 45.6543 45.1016 45.3516 45.1016 45.0039C45.1016 44.6172 45.2539 44.2871 45.5586 44.0137C45.8633 43.7363 46.2305 43.5977 46.6602 43.5977C47.0938 43.5977 47.4629 43.7363 47.7676 44.0137C48.0723 44.291 48.2227 44.6211 48.2188 45.0039Z" fill="white"/>
</g>
<defs>
<clipPath id="clip0_1_6">
<rect width="64" height="64" fill="white"/>
</clipPath>
</defs>
</svg>
